<svg width="18" height="20" viewBox="0 0 18 20" fill="none" xmlns="http://www.w3.org/2000/svg">
<path fill-rule="evenodd" clip-rule="evenodd" d="M17.125 4.25C17.125 4.58152 16.9933 4.89946 16.7589 5.13388C16.5245 5.3683 16.2065 5.5 15.875 5.5H15.25V16.75C15.25 17.413 14.9866 18.0489 14.5178 18.5178C14.0489 18.9866 13.413 19.25 12.75 19.25H5.25C4.58696 19.25 3.95107 18.9866 3.48223 18.5178C3.01339 18.0489 2.75 17.413 2.75 16.75V5.5H2.125C1.79348 5.5 1.47554 5.3683 1.24112 5.13388C1.0067 4.89946 0.875 4.58152 0.875 4.25V3C0.875 2.66848 1.0067 2.35054 1.24112 2.11612C1.47554 1.8817 1.79348 1.75 2.125 1.75H6.5C6.5 1.41848 6.6317 1.10054 6.86612 0.866117C7.10054 0.631696 7.41848 0.5 7.75 0.5L10.25 0.5C10.5815 0.5 10.8995 0.631696 11.1339 0.866117C11.3683 1.10054 11.5 1.41848 11.5 1.75H15.875C16.2065 1.75 16.5245 1.8817 16.7589 2.11612C16.9933 2.35054 17.125 2.66848 17.125 3V4.25ZM4.1475 5.5L4 5.57375V16.75C4 17.0815 4.1317 17.3995 4.36612 17.6339C4.60054 17.8683 4.91848 18 5.25 18H12.75C13.0815 18 13.3995 17.8683 13.6339 17.6339C13.8683 17.3995 14 17.0815 14 16.75V5.57375L13.8525 5.5H4.1475ZM2.125 4.25V3H15.875V4.25H2.125Z" fill="#FF6262"/>
</svg>
